<svg xmlns="http://www.w3.org/2000/svg" width="118" height="118" viewBox="0 0 118 118">
  <g id="icon1" transform="translate(-509 -2511)">
    <circle id="Ellipse_3" data-name="Ellipse 3" cx="59" cy="59" r="59" transform="translate(509 2511)" fill="#fff"/>
    <g id="farm" transform="translate(540 2542)">
      <path id="Path_14" data-name="Path 14" d="M55.071,25.169a3.23,3.23,0,0,0-3.227-3.227H50.188a10.406,10.406,0,0,0,1.514-3.8,8.958,8.958,0,0,0-1.207-6.77,4.949,4.949,0,0,0-6.3-1.784A2.842,2.842,0,0,1,45.644,8.32a1.076,1.076,0,1,0-.79-2,4.989,4.989,0,0,0-3.066,3.657,5.247,5.247,0,0,0-3.639-.808A5.012,5.012,0,0,0,35,11.073,8.142,8.142,0,0,0,31.882,7.4,3.205,3.205,0,0,0,30.5,1.991a3.209,3.209,0,0,0-5.937,0A3.205,3.205,0,0,0,23.19,7.406a8.123,8.123,0,0,0-3.764,6.916A9.651,9.651,0,0,0,16.9,13.1a6.6,6.6,0,0,1-3.744-2.975A5.382,5.382,0,0,0,6.575,7.786a3.351,3.351,0,0,1-.916-2.31,1.076,1.076,0,0,0-2.151,0A5.485,5.485,0,0,0,4.743,8.956a5.386,5.386,0,0,0-.9,6.546,6.486,6.486,0,0,1,.716,4.678,9.666,9.666,0,0,0-.227,1.762h-1.1A3.23,3.23,0,0,0,0,25.169v6.023a3.213,3.213,0,0,0,.824,2.151A3.215,3.215,0,0,0,0,35.495v6.023A3.213,3.213,0,0,0,.824,43.67,3.213,3.213,0,0,0,0,45.821v6.023a3.23,3.23,0,0,0,3.227,3.227H51.844a3.23,3.23,0,0,0,3.227-3.227V45.821a3.213,3.213,0,0,0-.824-2.151,3.213,3.213,0,0,0,.824-2.151V35.495a3.213,3.213,0,0,0-.824-2.151,3.213,3.213,0,0,0,.824-2.151ZM41.648,13.108a2.481,2.481,0,0,1-2.26,2.26,2.48,2.48,0,0,1,2.26-2.26ZM38.49,11.291a2.829,2.829,0,0,1,1.342.123A4.633,4.633,0,0,0,37.343,16.6a1.076,1.076,0,0,0,.813.813,4.694,4.694,0,0,0,1.031.116,4.632,4.632,0,0,0,4.6-5.066,3.56,3.56,0,0,1,2.991-1.171,3.029,3.029,0,0,1,1.958,1.321,6.907,6.907,0,0,1,.852,5.136A7.585,7.585,0,0,1,47.4,21.942H37.872a7.585,7.585,0,0,1-2.191-4.194,6.909,6.909,0,0,1,.852-5.136,3.027,3.027,0,0,1,1.958-1.321Zm-3.965,9.7a9.684,9.684,0,0,0,.555.954h-.734ZM25.4,6.144a1.057,1.057,0,0,1-.011-2.113h.026a1.076,1.076,0,0,0,1.068-.95,1.056,1.056,0,0,1,2.1,0,1.076,1.076,0,0,0,1.068.95h.024a1.056,1.056,0,0,1-.008,2.113ZM27.538,8.3a5.962,5.962,0,0,1,5.935,5.4H31.6a1.076,1.076,0,1,0,0,2.151h1.7l-1.147,6.095H22.918L21.68,15.358a5.965,5.965,0,0,1-.02-2.092h3.805a1.076,1.076,0,1,0,0-2.151H22.474a6,6,0,0,1,.476-.664A5.944,5.944,0,0,1,27.538,8.3ZM5.7,14.427A3.23,3.23,0,1,1,11.3,11.2a8.751,8.751,0,0,0,4.955,3.95,7.432,7.432,0,0,1,3.686,2.595l.79,4.2H6.482a7.476,7.476,0,0,1,.173-1.289A8.635,8.635,0,0,0,5.7,14.427ZM2.151,25.169a1.077,1.077,0,0,1,1.076-1.076H51.844a1.077,1.077,0,0,1,1.076,1.076v6.023a1.077,1.077,0,0,1-1.076,1.076H3.227a1.077,1.077,0,0,1-1.076-1.076ZM52.92,51.844a1.077,1.077,0,0,1-1.076,1.076H3.227a1.077,1.077,0,0,1-1.076-1.076V45.821a1.077,1.077,0,0,1,1.076-1.076h20.02a1.076,1.076,0,1,0,0-2.151H3.227a1.077,1.077,0,0,1-1.076-1.076V35.495a1.077,1.077,0,0,1,1.076-1.076H51.844a1.077,1.077,0,0,1,1.076,1.076v6.023a1.077,1.077,0,0,1-1.076,1.076H31.852a1.076,1.076,0,1,0,0,2.151H51.844a1.077,1.077,0,0,1,1.076,1.076Zm0,0" transform="translate(0)" fill="#ff8553"/>
      <path id="Path_15" data-name="Path 15" d="M55.076,254.151a1.076,1.076,0,1,0-.76-.315A1.084,1.084,0,0,0,55.076,254.151Zm0,0" transform="translate(-48.192 -224.895)" fill="#ff8553"/>
      <path id="Path_16" data-name="Path 16" d="M439.076,254.151a1.076,1.076,0,1,0-.76-.315A1.084,1.084,0,0,0,439.076,254.151Zm0,0" transform="translate(-390.888 -224.895)" fill="#ff8553"/>
      <path id="Path_17" data-name="Path 17" d="M55.076,348a1.076,1.076,0,1,0,.76.315A1.084,1.084,0,0,0,55.076,348Zm0,0" transform="translate(-48.192 -310.569)" fill="#ff8553"/>
      <path id="Path_18" data-name="Path 18" d="M439.076,350.151a1.076,1.076,0,1,0-.76-.315A1.084,1.084,0,0,0,439.076,350.151Zm0,0" transform="translate(-390.888 -310.569)" fill="#ff8553"/>
      <path id="Path_19" data-name="Path 19" d="M55.076,444a1.076,1.076,0,1,0,.76.315A1.084,1.084,0,0,0,55.076,444Zm0,0" transform="translate(-48.192 -396.243)" fill="#ff8553"/>
      <path id="Path_20" data-name="Path 20" d="M439.076,444a1.076,1.076,0,1,0,.76.315A1.084,1.084,0,0,0,439.076,444Zm0,0" transform="translate(-390.888 -396.243)" fill="#ff8553"/>
      <path id="Path_21" data-name="Path 21" d="M226.754,157.213a1.076,1.076,0,0,0,1.076,1.076h2.147a1.076,1.076,0,0,0,0-2.151H227.83A1.076,1.076,0,0,0,226.754,157.213Zm0,0" transform="translate(-202.364 -139.343)" fill="#ff8553"/>
      <path id="Path_22" data-name="Path 22" d="M247.076,396a1.076,1.076,0,1,0,.76.315A1.084,1.084,0,0,0,247.076,396Zm0,0" transform="translate(-219.54 -353.406)" fill="#ff8553"/>
    </g>
  </g>
</svg>
