<svg xmlns="http://www.w3.org/2000/svg" width="118" height="118" viewBox="0 0 118 118">
  <g id="icon3" transform="translate(-1292 -2511)">
    <circle id="Ellipse_5" data-name="Ellipse 5" cx="59" cy="59" r="59" transform="translate(1292 2511)" fill="#fff"/>
    <g id="food-delivery" transform="translate(1326 2542)">
      <path id="Path_24" data-name="Path 24" d="M48.351,39.933H46.483A18.271,18.271,0,0,0,41.847,28.8a1.072,1.072,0,0,0,.022-.216V14.03a1.079,1.079,0,0,0-1.079-1.079H36.263V6.26h0a1.076,1.076,0,0,0-.314-.763L30.767.316A1.079,1.079,0,0,0,30,0H11.872a1.079,1.079,0,0,0-.763.316L5.928,5.5a1.078,1.078,0,0,0-.314.763h0v6.691H1.079A1.079,1.079,0,0,0,0,14.03V49.491a1.079,1.079,0,0,0,.316.763L5,54.942a1.079,1.079,0,0,0,.763.316H36.1a1.081,1.081,0,0,0,.763-.316l4.688-4.688a1.079,1.079,0,0,0,.316-.763V46.84H43.6a5.835,5.835,0,0,0,5.828-5.828,1.079,1.079,0,0,0-1.079-1.079Zm-23.773-3.7a3.665,3.665,0,0,1,.352-1.576l0-.008a3.713,3.713,0,0,1,.227-.407,1.057,1.057,0,0,0,.061-.109,6.41,6.41,0,0,0,.634-2.32q.043.1.082.2a1.079,1.079,0,0,0,2.052-.663,3.4,3.4,0,0,1,.941-2.129,13,13,0,0,0,1.838,3.989c.173.286.353.581.519.867.013.023.028.046.043.068a3.67,3.67,0,0,1,.351.639l0,.005a3.7,3.7,0,1,1-7.106,1.441Zm9.091-2.29-.007-.016a5.873,5.873,0,0,0-.527-.965c-.171-.293-.349-.586-.521-.87-.989-1.629-1.922-3.167-1.565-4.706a1.079,1.079,0,0,0-1.444-1.249,6.376,6.376,0,0,0-3.177,2.975,3.833,3.833,0,0,0-1.852-.809,1.076,1.076,0,0,0-1.11,1.495,4.379,4.379,0,0,1-.16,3.337,5.853,5.853,0,0,0-.315.572c-.011.02-.02.04-.029.061a5.852,5.852,0,0,0,.777,6.164H12.015a16.189,16.189,0,0,1,32.307,0H32.814a5.855,5.855,0,0,0,.855-5.989ZM29.132,22.69q-.479-.025-.963-.025t-.963.025v-.754a.963.963,0,1,1,1.927,0ZM12.951,12.951V7.339H28.924v5.612ZM31.083,7.339H34.1v5.612H31.083ZM12.319,2.159H29.557l3.022,3.022H9.3ZM7.771,7.339h3.022v5.612H7.771ZM43.6,44.682H32.594a1.079,1.079,0,1,0,0,2.159H39.71v2.2L35.654,53.1H6.215L2.159,49.044V15.11H39.71V26.761a18.28,18.28,0,0,0-8.42-3.829v-1a3.122,3.122,0,0,0-6.244,0v1a18.381,18.381,0,0,0-15.193,17H8.2a1.079,1.079,0,0,0-1.079,1.079,5.835,5.835,0,0,0,5.828,5.828H23.96a1.079,1.079,0,0,0,0-2.159H12.951a3.676,3.676,0,0,1-3.508-2.59H47.11a3.676,3.676,0,0,1-3.508,2.59Zm0,0" transform="translate(0 0)" fill="#ff8553"/>
      <path id="Path_25" data-name="Path 25" d="M253.079,414a1.079,1.079,0,1,0,.763.316A1.088,1.088,0,0,0,253.079,414Zm0,0" transform="translate(-224.803 -369.319)" fill="#ff8553"/>
    </g>
  </g>
</svg>
