<svg xmlns="http://www.w3.org/2000/svg" width="118" height="118" viewBox="0 0 118 118">
  <g id="icon2" transform="translate(-901 -2511)">
    <circle id="Ellipse_4" data-name="Ellipse 4" cx="59" cy="59" r="59" transform="translate(901 2511)" fill="#fff"/>
    <g id="cake_2_" data-name="cake (2)" transform="translate(926 2501.111)">
      <g id="Group_19" data-name="Group 19" transform="translate(0 40.889)">
        <path id="Path_23" data-name="Path 23" d="M66.013,89.2a4.122,4.122,0,0,0-2.9-1.212h-6.14V63.173a4.7,4.7,0,0,0-4.685-4.685H37.674A4.586,4.586,0,0,0,34.9,51.931c.244-2.336,1.3-7.81,5.908-8.627a1.223,1.223,0,0,0-.423-2.406c-6.354,1.16-7.659,8.291-7.926,11.016a4.586,4.586,0,0,0-2.9,6.575H14.941a4.7,4.7,0,0,0-4.685,4.685V87.987H4.111a4.137,4.137,0,0,0,0,8.273h58.98a4.122,4.122,0,0,0,2.841-1.16l.081-.07.011-.011A4.116,4.116,0,0,0,66.013,89.2ZM32.1,54.835a2.139,2.139,0,1,1,0,3.026A2.139,2.139,0,0,1,32.1,54.835ZM12.7,63.173a2.25,2.25,0,0,1,2.244-2.244H52.278a2.25,2.25,0,0,1,2.244,2.244v6.285a24.994,24.994,0,0,0-10.7-3.728,33.042,33.042,0,0,0-14.761,2.012c-9,3.195-14.576,1.565-16.367.835v-5.4Zm0,7.978c2.783.9,8.685,1.913,17.179-1.107a30.675,30.675,0,0,1,13.683-1.89A22.612,22.612,0,0,1,54.528,72.4V83.175H12.7V71.151Zm0,14.471H54.528v2.365H12.7Zm51.629,7.711-.046.052a1.682,1.682,0,0,1-1.16.446H4.111a1.7,1.7,0,0,1,0-3.4H63.12a1.681,1.681,0,0,1,1.206.516l.005.005A1.681,1.681,0,0,1,64.326,93.333Z" transform="translate(0 -40.889)" fill="#ff8553"/>
      </g>
    </g>
  </g>
</svg>
