<svg id="play-button" xmlns="http://www.w3.org/2000/svg" width="48" height="48" viewBox="0 0 48 48">
  <path id="Path_3" data-name="Path 3" d="M45.344,13.015a24.213,24.213,0,0,0-7.088-8.324.977.977,0,1,0-1.162,1.571,22.251,22.251,0,0,1,6.513,7.649A21.8,21.8,0,0,1,46.046,24,22.046,22.046,0,1,1,24,1.954.977.977,0,0,0,24,0,23.986,23.986,0,1,0,45.344,13.015Z" fill="#fff"/>
  <path id="Path_4" data-name="Path 4" d="M107.161,78.313a.983.983,0,0,0-.5.855V100.74a.983.983,0,1,0,1.966,0V80.9l14.553,8.664-10.7,6.895a.983.983,0,1,0,1.065,1.653l12.036-7.754a.983.983,0,0,0-.03-1.671l-17.4-10.36A.983.983,0,0,0,107.161,78.313Z" transform="translate(-89.373 -65.533)" fill="#fff"/>
</svg>
